<?xml version="1.0" encoding="utf-8"?>
<!-- Generator: Adobe Illustrator 26.1.0, SVG Export Plug-In . SVG Version: 6.00 Build 0)  -->
<svg version="1.1" id="Layer_1" xmlns="http://www.w3.org/2000/svg" xmlns:xlink="http://www.w3.org/1999/xlink" x="0px" y="0px"
	 viewBox="0 0 1013.1 113.6" style="enable-background:new 0 0 1013.1 113.6;" xml:space="preserve">
<style type="text/css">
	.st0{fill:#231F20;}
</style>
<g>
	<path class="st0" d="M571.4,17.6L571.4,17.6L518.4,0.3c-0.9-0.4-1.8-0.4-2.9,0l-53.1,17.3c-1.8,0.5-3.1,2.4-3.1,4.4v69.7
		c0,2,1.3,3.6,3.1,4.4l53.1,17.3c0.5,0.2,0.9,0.2,1.5,0.2s0.9,0,1.5-0.2l53.1-17.5c1.8-0.5,3.1-2.4,3.1-4.4V22
		C574.5,20,573.3,18.3,571.4,17.6z M512.5,102.8l-0.2,0l-44-14.4V28.2l17.5,5.7v23.5l-3.7-5.3c-1.4-2.1-4.3-2.6-6.3-1.1
		c-2.1,1.4-2.6,4.3-1.1,6.3l11.5,16.6c0.8,1.1,2,1.8,3.3,1.9c0.1,0,0.3,0,0.4,0c1.2,0,2.4-0.5,3.2-1.3L504.7,63
		c1.8-1.8,1.8-4.7,0-6.4c-1.8-1.8-4.7-1.8-6.4,0l-3.3,3.3V36.9l17.5,5.7V102.8z M516.9,34.6l-12.4-4l8.8-3.1
		c2.4-0.9,3.6-3.5,2.7-5.8c-0.9-2.4-3.5-3.5-5.8-2.7L490.6,26l-12.2-4l38.5-12.6L555.4,22L516.9,34.6z M547.9,94v-15l3.3,3.3
		c1.8,1.8,4.7,1.8,6.4,0c1.8-1.8,1.8-4.7,0-6.4l-11.5-11.5c-1-1-2.3-1.5-3.7-1.3c-1.4,0.1-2.6,0.9-3.3,2.1l-11.5,17.8
		c-1.4,2.1-0.8,4.9,1.3,6.3c0.8,0.5,1.6,0.7,2.5,0.7c1.5,0,3-0.7,3.8-2.1l3.8-5.8v15.1l-17.5,5.7V42.6l44-14.4l0,60.2L547.9,94z"/>
	<g>
		<path class="st0" d="M0,56.5C0,38,12.5,25.4,29.8,25.4c7.4,0,14.1,2.2,20.6,6.5l-1.6,11.5h-0.4c-5.5-4.6-11.5-7.1-17.6-7.1
			c-10.9,0-18.3,8-18.3,19.9c0,12,7.4,20.1,18.5,20.1c6.1,0,12.2-2.5,17.6-7.1h0.5l1.6,11.5c-6.5,4.3-13.4,6.5-20.8,6.5
			C12.2,87.3,0,74.8,0,56.5z"/>
		<path class="st0" d="M57.5,56.4c0-17.7,12.3-30.9,30.7-30.9c18.4,0,30.8,13.2,30.8,30.9c0,17.5-12.5,30.9-30.8,30.9
			C70,87.3,57.5,73.9,57.5,56.4z M106.6,56.4c0-11.7-7.2-20.1-18.4-20.1c-11.2,0-18.4,8.4-18.4,20.1c0,11.4,7.2,20.1,18.4,20.1
			C99.4,76.5,106.6,67.8,106.6,56.4z"/>
		<path class="st0" d="M129.9,85.6V27.1h10.4l20.4,24.8c3.2,4,6.4,8,10.2,13.5h0.2c-0.5-5.5-0.7-10.3-0.7-15.9V27.1h11.6v59.2h-8.1
			l-22.5-27c-3.2-3.9-6.5-8-10.3-13.5h-0.2c0.5,5.5,0.7,10.7,0.7,16.2v23.6H129.9z"/>
		<path class="st0" d="M195.7,85.6V27.1h10.4l20.4,24.8c3.2,4,6.4,8,10.2,13.5h0.2c-0.5-5.5-0.7-10.3-0.7-15.9V27.1h11.6v59.2h-8.1
			l-22.5-27c-3.2-3.9-6.5-8-10.3-13.5h-0.2c0.5,5.5,0.7,10.7,0.7,16.2v23.6H195.7z"/>
		<path class="st0" d="M273.1,60.2v15.4h25.1L297,85.6h-35.6V27.1H297l1.2,10.1h-25.1v14.2h22.7v8.8H273.1z"/>
		<path class="st0" d="M305.8,56.5c0-18.5,12.5-31.1,29.8-31.1c7.4,0,14.1,2.2,20.6,6.5l-1.6,11.5h-0.4c-5.5-4.6-11.5-7.1-17.6-7.1
			c-10.9,0-18.3,8-18.3,19.9c0,12,7.4,20.1,18.5,20.1c6.1,0,12.2-2.5,17.6-7.1h0.5l1.6,11.5c-6.5,4.3-13.4,6.5-20.8,6.5
			C318,87.3,305.8,74.8,305.8,56.5z"/>
		<path class="st0" d="M410.3,27.1v10.8h-18v47.8h-11.6V37.8h-18V27.1H410.3z"/>
		<path class="st0" d="M627.4,85.6V27.1h18.4c21.7,0,33.6,10.7,33.6,29c0,18.5-12.7,29.5-33.6,29.5H627.4z M639,75.4h6
			c15.1,0,22.4-6,22.4-19.4c0-12.7-7.1-18.7-22.3-18.7h-6V75.4z"/>
		<path class="st0" d="M701.8,60.2v15.4h25.1l-1.2,10.1h-35.6V27.1h35.6l1.2,10.1h-25.1v14.2h22.7v8.8H701.8z"/>
		<path class="st0" d="M738.5,27.1h11.7v48.2h25.6l-1.3,10.4h-36V27.1z"/>
		<path class="st0" d="M783.7,27.1h11.7v58.6h-11.7V27.1z"/>
		<path class="st0" d="M825.7,86.3l-22.9-58.9l0.3-0.3h12.8l11.7,32.8c1.1,3.1,2.6,7.3,3.6,11.5h0.2c1.1-4.2,2.4-8.2,3.6-11.3
			l11.7-32.9h12.7l0.3,0.3l-22.9,58.9H825.7z"/>
		<path class="st0" d="M878.7,60.2v15.4h25.1l-1.2,10.1H867V27.1h35.6l1.2,10.1h-25.1v14.2h22.7v8.8H878.7z"/>
		<path class="st0" d="M962,84.2l-0.7,1.4h-12.1l-15.8-23.2H927v23.2h-11.7V27.1h19.5c13.8,0,21.2,6,21.2,18c0,7.6-3.9,13-10.9,15.4
			L962,84.2z M927,36.8v16.6h6.6c7.9,0,11-2.7,11-8.2c0-5.8-3.3-8.4-11-8.4H927z"/>
		<path class="st0" d="M974.2,27.1l7.1,13.7c2.2,4.3,3.7,7.8,5.5,11.8h0.2c1.8-4.1,3.5-7.5,5.5-11.7l7.1-13.8h13.2l0.2,0.3
			l-20.4,34.7v23.6h-11.6V62.1l-20.4-34.7l0.2-0.3H974.2z"/>
	</g>
</g>
</svg>
